:FULLY-SPECIFIED
:FORCE-ALL-JOINTS-BE-3DOF
:DEGREES
1019
root 1.14996 15.1619 32.4429 4.86639 -3.56056 363.602
lfemur 8.4849 0.587159 5.6763
ltibia -3.77115e-14 0 0
lfoot -30.1405 -11.0539 0
ltoes -34.3277 0 0
rfemur -31.6346 -15.9035 -6.04683
rtibia 50.1598 0 0
rfoot -22.3989 4.79285 0
rtoes -42.478 0 0
lowerback -1.42486 -0.152943 0.278969
upperback -0.547011 -0.192748 -5.92456
thorax 0.215179 -0.104204 -6.30294
lowerneck -7.16034 0.946308 6.20398
upperneck 1.60797 0.580251 3.56352
head 1.72922 0.424519 0.0910839
lclavicle 4.8671e-15 4.54502e-15 0
lhumerus -58.6936 -46.5041 115.421
lradius 55.6336 0 0
lwrist 25.1812 0 0
lhand 37.2101 24.8282 0
lfingers 7.12502 0 0
lthumb 60.0449 38.5607 0
rclavicle 4.8671e-15 4.54502e-15 0
rhumerus 2.85697 -23.9023 0.130657
rradius 27.6306 0 0
rwrist -10.3702 0 0
rhand -30.7598 -43.0185 0
rfingers 7.12502 0 0
rthumb -4.05121 -792.96 0
1020
root 1.15104 15.1615 32.4464 4.86072 -3.54462 363.59
lfemur 8.49829 0.57085 5.68845
ltibia -3.54413e-14 0 0
lfoot -30.1462 -11.0535 0
ltoes -34.3355 0 0
rfemur -31.6126 -15.9207 -6.04782
rtibia 50.1668 0 0
rfoot -22.3648 4.87349 0
rtoes -42.3773 0 0
lowerback -1.44288 -0.143531 0.254601
upperback -0.542206 -0.178944 -5.93741
thorax 0.231834 -0.0968962 -6.30245
lowerneck -7.15603 0.936925 6.2338
upperneck 1.61169 0.565136 3.56811
head 1.72962 0.417419 0.086962
lclavicle 5.96668e-15 8.17718e-15 0
lhumerus -58.6905 -46.5275 115.411
lradius 55.645 0 0
lwrist 25.1943 0 0
lhand 37.2276 24.8642 0
lfingers 7.12502 0 0
lthumb 60.0599 38.581 0
rclavicle 5.96668e-15 8.17718e-15 0
rhumerus 2.83352 -23.8921 0.145931
rradius 27.6118 0 0
rwrist -10.3111 0 0
rhand -30.7376 -42.9661 0
rfingers 7.12502 0 0
rthumb -4.02982 -792.907 0
1021
root 1.15212 15.1611 32.45 4.85512 -3.52883 363.577
lfemur 8.51157 0.554688 5.70048
ltibia -3.31918e-14 0 0
lfoot -30.1517 -11.053 0
ltoes -34.3433 0 0
rfemur -31.5909 -15.9378 -6.04879
rtibia 50.1738 0 0
rfoot -22.3309 4.9534 0
rtoes -42.2775 0 0
lowerback -1.46074 -0.134206 0.230454
upperback -0.537443 -0.165265 -5.95013
thorax 0.248337 -0.0896546 -6.30197
lowerneck -7.15177 0.927627 6.26335
upperneck 1.61537 0.550158 3.57266
head 1.73001 0.410382 0.0828775
lclavicle 7.05628e-15 1.17764e-14 0
lhumerus -58.6873 -46.5508 115.4
lradius 55.6563 0 0
lwrist 25.2074 0 0
lhand 37.2449 24.8998 0
lfingers 7.12502 0 0
lthumb 60.0747 38.601 0
rclavicle 7.05628e-15 1.17764e-14 0
rhumerus 2.81027 -23.8819 0.161067
rradius 27.593 0 0
rwrist -10.2525 0 0
rhand -30.7157 -42.9141 0
rfingers 7.12502 0 0
rthumb -4.00862 -792.856 0
1022
root 1.15317 15.1607 32.4535 4.84966 -3.51348 363.564
lfemur 8.52447 0.538971 5.71218
ltibia -3.10042e-14 0 0
lfoot -30.1572 -11.0526 0
ltoes -34.3509 0 0
rfemur -31.5697 -15.9544 -6.04973
rtibia 50.1806 0 0
rfoot -22.298 5.03111 0
rtoes -42.1805 0 0
lowerback -1.4781 -0.125136 0.206971
upperback -0.532812 -0.151962 -5.9625
thorax 0.264386 -0.0826119 -6.3015
lowerneck -7.14762 0.918584 6.29209
upperneck 1.61895 0.535591 3.57709
head 1.73038 0.403539 0.0789053
lclavicle 8.11594e-15 1.52767e-14 0
lhumerus -58.6843 -46.5734 115.39
lradius 55.6673 0 0
lwrist 25.2201 0 0
lhand 37.2618 24.9345 0
lfingers 7.12502 0 0
lthumb 60.0891 38.6204 0
rclavicle 8.11594e-15 1.52767e-14 0
rhumerus 2.78766 -23.8721 0.175787
rradius 27.5748 0 0
rwrist -10.1956 0 0
rhand -30.6943 -42.8635 0
rfingers 7.12502 0 0
rthumb -3.988 -792.806 0
1023
root 1.15416 15.1603 32.4568 4.84446 -3.49885 363.553
lfemur 8.53677 0.523994 5.72333
ltibia -2.89195e-14 0 0
lfoot -30.1623 -11.0522 0
ltoes -34.3582 0 0
rfemur -31.5495 -15.9702 -6.05064
rtibia 50.187 0 0
rfoot -22.2666 5.10516 0
rtoes -42.088 0 0
lowerback -1.49465 -0.116494 0.184594
upperback -0.528399 -0.139286 -5.9743
thorax 0.27968 -0.0759009 -6.30106
lowerneck -7.14367 0.909967 6.31948
upperneck 1.62236 0.521711 3.58131
head 1.73074 0.397019 0.0751201
lclavicle 9.1257e-15 1.86121e-14 0
lhumerus -58.6813 -46.595 115.38
lradius 55.6778 0 0
lwrist 25.2322 0 0
lhand 37.2778 24.9675 0
lfingers 7.12502 0 0
lthumb 60.1028 38.639 0
rclavicle 9.1257e-15 1.86121e-14 0
rhumerus 2.76612 -23.8627 0.189813
rradius 27.5575 0 0
rwrist -10.1413 0 0
rhand -30.674 -42.8154 0
rfingers 7.12502 0 0
rthumb -3.96836 -792.758 0
1024
root 1.15509 15.1599 32.4598 4.83962 -3.48523 363.542
lfemur 8.54822 0.510053 5.73371
ltibia -2.69791e-14 0 0
lfoot -30.1672 -11.0518 0
ltoes -34.3649 0 0
rfemur -31.5308 -15.9849 -6.05147
rtibia 50.1931 0 0
rfoot -22.2374 5.17409 0
rtoes -42.0019 0 0
lowerback -1.51006 -0.108449 0.163765
upperback -0.524291 -0.127486 -5.98527
thorax 0.293916 -0.0696543 -6.30064
lowerneck -7.13999 0.901946 6.34497
upperneck 1.62553 0.508791 3.58524
head 1.73108 0.390949 0.0715969
lclavicle 1.00656e-14 2.17168e-14 0
lhumerus -58.6786 -46.615 115.371
lradius 55.6876 0 0
lwrist 25.2434 0 0
lhand 37.2927 24.9982 0
lfingers 7.12502 0 0
lthumb 60.1156 38.6563 0
rclavicle 1.00656e-14 2.17168e-14 0
rhumerus 2.74607 -23.8539 0.20287
rradius 27.5414 0 0
rwrist -10.0908 0 0
rhand -30.655 -42.7705 0
rfingers 7.12502 0 0
rthumb -3.95007 -792.714 0
1025
root 1.15593 15.1596 32.4626 4.83525 -3.47291 363.532
lfemur 8.55858 0.497444 5.7431
ltibia -2.52241e-14 0 0
lfoot -30.1715 -11.0514 0
ltoes -34.371 0 0
rfemur -31.5138 -15.9983 -6.05223
rtibia 50.1985 0 0
rfoot -22.211 5.23643 0
rtoes -41.9241 0 0
lowerback -1.52399 -0.101174 0.144927
upperback -0.520576 -0.116815 -5.9952
thorax 0.306791 -0.0640047 -6.30026
lowerneck -7.13666 0.894692 6.36803
upperneck 1.6284 0.497106 3.58879
head 1.73138 0.38546 0.0684104
lclavicle 1.09156e-14 2.45247e-14 0
lhumerus -58.6762 -46.6332 115.362
lradius 55.6964 0 0
lwrist 25.2536 0 0
lhand 37.3063 25.026 0
lfingers 7.12502 0 0
lthumb 60.1271 38.6719 0
rclavicle 1.09156e-14 2.45247e-14 0
rhumerus 2.72793 -23.846 0.214678
rradius 27.5268 0 0
rwrist -10.0451 0 0
rhand -30.6379 -42.73 0
rfingers 7.12502 0 0
rthumb -3.93353 -792.673 0
1026
root 1.15666 15.1594 32.465 4.83144 -3.46218 363.523
lfemur 8.5676 0.486464 5.75127
ltibia -2.36958e-14 0 0
lfoot -30.1753 -11.0511 0
ltoes -34.3763 0 0
rfemur -31.499 -16.0099 -6.05289
rtibia 50.2032 0 0
rfoot -22.188 5.29071 0
rtoes -41.8563 0 0
lowerback -1.53612 -0.0948381 0.128522
upperback -0.51734 -0.107521 -6.00384
thorax 0.318003 -0.0590848 -6.29994
lowerneck -7.13376 0.888375 6.38811
upperneck 1.63091 0.48693 3.59188
head 1.73165 0.380679 0.0656354
lclavicle 1.16559e-14 2.69699e-14 0
lhumerus -58.674 -46.649 115.355
lradius 55.7041 0 0
lwrist 25.2625 0 0
lhand 37.318 25.0502 0
lfingers 7.12502 0 0
lthumb 60.1372 38.6855 0
rclavicle 1.16559e-14 2.69699e-14 0
rhumerus 2.71214 -23.8391 0.224961
rradius 27.514 0 0
rwrist -10.0053 0 0
rhand -30.623 -42.6946 0
rfingers 7.12502 0 0
rthumb -3.91913 -792.638 0
1027
root 1.15727 15.1591 32.467 4.82829 -3.45334 363.516
lfemur 8.57503 0.477409 5.75802
ltibia -2.24354e-14 0 0
lfoot -30.1784 -11.0509 0
ltoes -34.3807 0 0
rfemur -31.4868 -16.0194 -6.05344
rtibia 50.2071 0 0
rfoot -22.169 5.33549 0
rtoes -41.8004 0 0
lowerback -1.54612 -0.0896129 0.114992
upperback -0.514672 -0.0998572 -6.01097
thorax 0.32725 -0.0550272 -6.29967
lowerneck -7.13137 0.883165 6.40466
upperneck 1.63297 0.478538 3.59443
head 1.73187 0.376737 0.0633469
lclavicle 1.22664e-14 2.89866e-14 0
lhumerus -58.6723 -46.662 115.349
lradius 55.7104 0 0
lwrist 25.2698 0 0
lhand 37.3277 25.0702 0
lfingers 7.12502 0 0
lthumb 60.1455 38.6967 0
rclavicle 1.22664e-14 2.89866e-14 0
rhumerus 2.69912 -23.8334 0.233442
rradius 27.5036 0 0
rwrist -9.97247 0 0
rhand -30.6107 -42.6655 0
rfingers 7.12502 0 0
rthumb -3.90725 -792.609 0
1028
root 1.15772 15.1589 32.4685 4.82592 -3.44666 363.511
lfemur 8.58065 0.470574 5.7631
ltibia -2.14841e-14 0 0
lfoot -30.1808 -11.0507 0
ltoes -34.384 0 0
rfemur -31.4776 -16.0266 -6.05385
rtibia 50.2101 0 0
rfoot -22.1547 5.36928 0
rtoes -41.7582 0 0
lowerback -1.55368 -0.085669 0.10478
upperback -0.512658 -0.0940724 -6.01636
thorax 0.334229 -0.0519647 -6.29946
lowerneck -7.12957 0.879233 6.41716
upperneck 1.63452 0.472204 3.59636
head 1.73203 0.373761 0.0616196
lclavicle 1.27272e-14 3.05087e-14 0
lhumerus -58.6709 -46.6718 115.345
lradius 55.7152 0 0
lwrist 25.2753 0 0
lhand 37.3351 25.0853 0
lfingers 7.12502 0 0
lthumb 60.1518 38.7052 0
rclavicle 1.27272e-14 3.05087e-14 0
rhumerus 2.68929 -23.8292 0.239842
rradius 27.4956 0 0
rwrist -9.9477 0 0
rhand -30.6014 -42.6435 0
rfingers 7.12502 0 0
rthumb -3.89829 -792.588 0
1029
root 1.15801 15.1588 32.4695 4.82442 -3.44244 363.507
lfemur 8.58419 0.466256 5.76632
ltibia -2.08831e-14 0 0
lfoot -30.1823 -11.0505 0
ltoes -34.3861 0 0
rfemur -31.4718 -16.0312 -6.05411
rtibia 50.212 0 0
rfoot -22.1457 5.39063 0
rtoes -41.7315 0 0
lowerback -1.55845 -0.0831774 0.098329
upperback -0.511386 -0.0904177 -6.01975
thorax 0.338638 -0.0500299 -6.29933
lowerneck -7.12843 0.876749 6.42506
upperneck 1.63551 0.468202 3.59758
head 1.73213 0.371881 0.0605283
lclavicle 1.30183e-14 3.14703e-14 0
lhumerus -58.6701 -46.678 115.342
lradius 55.7182 0 0
lwrist 25.2788 0 0
lhand 37.3397 25.0948 0
lfingers 7.12502 0 0
lthumb 60.1557 38.7105 0
rclavicle 1.30183e-14 3.14703e-14 0
rhumerus 2.68307 -23.8264 0.243886
rradius 27.4906 0 0
rwrist -9.93205 0 0
rhand -30.5955 -42.6296 0
rfingers 7.12502 0 0
rthumb -3.89262 -792.574 0
1030
root 1.15811 15.1588 32.4698 4.8239 -3.44097 363.506
lfemur 8.58543 0.464751 5.76744
ltibia -2.06736e-14 0 0
lfoot -30.1828 -11.0505 0
ltoes -34.3868 0 0
rfemur -31.4698 -16.0328 -6.0542
rtibia 50.2126 0 0
rfoot -22.1425 5.39807 0
rtoes -41.7222 0 0
lowerback -1.56011 -0.0823089 0.0960802
upperback -0.510942 -0.0891438 -6.02094
thorax 0.340175 -0.0493555 -6.29929
lowerneck -7.12803 0.875883 6.42781
upperneck 1.63585 0.466807 3.598
head 1.73217 0.371226 0.0601479
lclavicle 1.31198e-14 3.18055e-14 0
lhumerus -58.6698 -46.6802 115.341
lradius 55.7193 0 0
lwrist 25.28 0 0
lhand 37.3413 25.0981 0
lfingers 7.12502 0 0
lthumb 60.1571 38.7124 0
rclavicle 1.31198e-14 3.18055e-14 0
rhumerus 2.68091 -23.8255 0.245296
rradius 27.4889 0 0
rwrist -9.9266 0 0
rhand -30.5935 -42.6248 0
rfingers 7.12502 0 0
rthumb -3.89065 -792.569 0
